<?xml version="1.0" encoding="utf-8"?>
<!-- Generator: Adobe Illustrator 22.0.1, SVG Export Plug-In . SVG Version: 6.00 Build 0)  -->
<svg version="1.1" id="Layer_1" xmlns="http://www.w3.org/2000/svg" xmlns:xlink="http://www.w3.org/1999/xlink" x="0px" y="0px"
	 viewBox="0 0 163.9 84.1" style="enable-background:new 0 0 163.9 84.1;" xml:space="preserve">
<style type="text/css">
	.st0{fill:#FFFFFF;}
	.st1{fill:#2F455B;}
</style>
<g>
	<path class="st0" d="M89.9,20.3l-4.1,14.6c-0.3,1-0.4,1.6-0.4,1.8c0,0.2,0.1,0.4,0.2,0.6c0.1,0.1,0.3,0.2,0.5,0.2s0.4-0.1,0.7-0.4
		c0.8-0.6,1.6-1.5,2.4-2.6l0.7,0.5c-0.9,1.4-2.1,2.6-3.4,3.6c-0.9,0.7-1.9,1.1-2.7,1.1c-0.6,0-1-0.1-1.4-0.5
		c-0.4-0.4-0.6-0.8-0.6-1.3c0-0.5,0.1-1.4,0.5-2.6l2.7-9.4c0.4-1.5,0.6-2.5,0.6-2.9c0-0.3-0.1-0.6-0.4-0.7c-0.2-0.2-0.5-0.3-0.9-0.3
		c-0.3,0-0.9,0.1-1.9,0.2v-0.8L89.9,20.3z M89.6,12c0.6,0,1.1,0.2,1.5,0.6c0.4,0.4,0.6,0.9,0.6,1.5c0,0.6-0.2,1.1-0.6,1.5
		c-0.4,0.4-0.9,0.6-1.5,0.6S88.5,16,88,15.6c-0.4-0.4-0.6-0.9-0.6-1.5c0-0.6,0.2-1.1,0.6-1.5C88.5,12.2,89,12,89.6,12"/>
	<path class="st0" d="M107.6,20.3l-4.1,14.1l-0.4,1.9c-0.1,0.2-0.1,0.4-0.1,0.4c0,0.2,0.1,0.4,0.2,0.6c0.1,0.1,0.2,0.2,0.4,0.2
		c0.2,0,0.9-0.3,1.1-0.5c0.6-0.4,1.6-0.9,2.5-2.2l-0.1,0.4c-0.9,1.4-1.9,2.6-2.9,3.3c-1,0.8-1.9,1.1-2.8,1.1c-0.6,0-1.1-0.1-1.4-0.4
		c-0.3-0.3-0.4-0.7-0.4-1.3c0-0.7,0.1-1.6,0.4-2.7l0.4-1.6c-1.8,2.4-3.5,4-5,5c-1.1,0.7-2.1,1-3.2,1c-1,0-1.9-0.4-2.6-1.3
		c-0.7-0.9-1.1-2-1.1-3.5c0-2.2,0.6-4.5,2-7c1.4-2.4,3-4.4,5.1-5.9c1.6-1.1,3.1-1.7,4.5-1.7c0.9,0,1.6,0.2,2.1,0.6s1,1.2,1.3,2.2
		l0.7-2.4L107.6,20.3z M100.2,21.4c-0.9,0-1.9,0.4-2.9,1.2c-1.4,1.2-2.6,2.9-3.8,5.2c-1.1,2.3-1.6,4.4-1.6,6.3
		c0,0.9,0.2,1.7,0.7,2.2c0.5,0.6,1,0.9,1.6,0.9c1.5,0,3.1-1.1,4.9-3.4c2.4-3,3.6-6,3.6-9.1c0-1.2-0.2-2-0.7-2.6
		C101.6,21.7,101,21.4,100.2,21.4"/>
	<path class="st0" d="M139.2,9.5L132,34.1c-0.4,1.4-0.6,2.2-0.6,2.6c0,0.1,0.1,0.3,0.1,0.4c0.1,0.1,0.2,0.2,0.4,0.2
		c0.2,0,0.4-0.1,0.6-0.3c0.5-0.4,1.3-1.1,2.4-2.5l0.7,0.4c-1,1.4-2,2.5-3,3.4c-1,0.9-2,1.3-2.9,1.3c-0.5,0-0.9-0.1-1.1-0.5
		c-0.3-0.4-0.4-0.8-0.4-1.4c0-0.8,0.2-1.9,0.6-3.2l0.8-2.6c-2,3.1-3.9,5.3-5.5,6.4c-1.1,0.8-2.2,1.2-3.3,1.2s-2-0.5-2.8-1.4
		s-1.1-2.2-1.1-3.8c0-2.1,0.6-4.3,2-6.6c1.3-2.4,3.1-4.3,5.2-5.7c1.7-1.2,3.3-1.8,4.7-1.8c0.7,0,1.4,0.1,1.9,0.4
		c0.6,0.3,1.1,0.8,1.6,1.5l2.1-7.2c0.1-0.5,0.3-0.9,0.4-1.2c0.1-0.6,0.2-1,0.2-1.4c0-0.3-0.1-0.5-0.3-0.7c-0.3-0.2-0.6-0.4-1.1-0.4
		c-0.3,0-0.9,0.1-1.6,0.1v-0.8L139.2,9.5z M131.5,24.3c0-0.9-0.3-1.6-0.8-2.1c-0.5-0.6-1.1-0.8-1.9-0.8c-1.7,0-3.6,1.4-5.4,4.4
		c-1.9,2.9-2.9,5.6-2.9,8.3c0,1.1,0.2,1.9,0.7,2.4c0.4,0.6,1,0.9,1.6,0.9c1.4,0,3.3-1.6,5.4-4.7C130.4,29.4,131.5,26.7,131.5,24.3"
		/>
	<path class="st0" d="M134.7,21.4l7.1-1.1l-3,10.1c2.4-4.1,4.6-7.1,6.6-8.7c1.1-0.9,2.1-1.4,2.7-1.4c0.4,0,0.8,0.1,1.1,0.4
		s0.4,0.6,0.4,1.1c0,0.9-0.2,1.8-0.7,2.6c-0.4,0.6-0.8,0.9-1.4,0.9c-0.3,0-0.6-0.1-0.9-0.3c-0.2-0.2-0.4-0.5-0.4-0.9
		c0-0.3-0.1-0.4-0.2-0.5c-0.1-0.1-0.2-0.1-0.4-0.1c-0.2,0-0.4,0.1-0.6,0.1c-0.4,0.2-0.9,0.7-1.6,1.6c-1.1,1.4-2.4,3.1-3.7,5.3
		c-0.6,0.9-1.1,1.9-1.5,3.1c-0.6,1.6-0.9,2.5-1,2.9l-0.6,2.5h-3.2l3.9-12.9c0.4-1.5,0.6-2.6,0.6-3.2c0-0.2-0.1-0.4-0.3-0.6
		c-0.3-0.2-0.6-0.4-1.1-0.4c-0.3,0-0.9,0.1-1.6,0.2L134.7,21.4z"/>
	<path class="st0" d="M119,20.2c-0.4,0.6-0.9,1-1.5,1c-0.2,0-0.7-0.1-1.4-0.4c-0.7-0.3-1.1-0.4-1.4-0.5c-0.4-0.1-0.8-0.1-1.2-0.1
		c-1.6,0-2.9,0.5-3.9,1.5c-0.6,0.6-1,1.3-1.2,2c-0.4,1.1-0.2,2.4,0.4,3.5c0.4,0.7,1.1,1.9,2.4,3.3c1.2,1.5,2.1,2.6,2.4,3.4
		c0.2,0.5,0.4,1,0.4,1.6c0,0.9-0.3,1.6-0.9,2.1c-0.6,0.6-1.5,1-2.6,1c-1.4,0-2.4-0.4-3.2-1.3c0,0-0.1-0.1-0.1-0.1
		c-0.1-0.1-0.1-0.4,0-0.5c0.2-0.3,0.5-0.7,0.8-1.1c0.4-0.5,0.4-2.5-1.4-2.6c-3-0.2-2,2.9-2,2.9c0.8,2.2,3.7,3.5,6.1,3.5l0,0
		c1.9,0,3.4-0.6,4.6-1.6c1.2-1.1,1.8-2.4,1.8-3.9c0-0.9-0.3-1.9-0.8-2.9c-0.5-1-1.7-2.5-3.5-4.4c-0.7-0.7-1.1-1.4-1.4-1.7
		c-0.2-0.4-0.3-1.3-0.3-1.8c0-0.6,0.3-1.2,0.8-1.7c0.5-0.5,1.2-0.7,2.1-0.7c1.1,0,1.9,0.4,2.7,1.3c0.7,0.9,1.1,2.6,1.2,4.5h0.8
		L120,20h-1V20.2z"/>
	<path class="st0" d="M95.6,72.6H82.4v-0.7C89.1,66,93.5,61.4,95.7,58c1-1.6,1.5-3.1,1.5-4.9c0-1.4-0.4-2.4-1.2-3.3
		c-0.9-0.9-1.9-1.3-3.2-1.3c-1.9,0-3.4,0.9-4.5,2.6l-0.7-0.3c0.6-1.7,1.6-3,2.9-3.9c1.3-0.9,2.6-1.4,4.1-1.4c1.7,0,3.1,0.6,4.2,1.7
		c1.1,1.1,1.7,2.6,1.7,4.2c0,1.1-0.2,2.2-0.6,3.2c-0.6,1.5-1.8,3.2-3.4,5.1c-2.6,2.9-5.9,6.2-10.2,10H93c1.1,0,1.9-0.2,2.6-0.6
		s1.2-1,1.5-1.8h0.8L95.6,72.6z"/>
	<path class="st0" d="M111.4,45.6c1.6,0,3.1,0.7,4.2,2.1c1.1,1.4,1.7,3.6,1.7,6.6c0,2.6-0.4,5.2-1.3,7.9c-0.9,2.7-2.1,5-3.6,7
		c-1.2,1.6-2.5,2.6-3.9,3.4c-0.8,0.4-1.7,0.6-2.7,0.6c-1.7,0-3.1-0.7-4.2-2.1c-1.1-1.4-1.7-3.6-1.7-6.6c0-3,0.6-6,1.7-9
		c1.4-3.5,3.1-6.2,5.1-8C108.2,46.2,109.7,45.6,111.4,45.6 M111.4,46.6c-0.8,0-1.5,0.3-2.3,0.9c-0.8,0.6-1.6,1.9-2.4,3.7
		c-0.9,1.9-1.6,4.3-2.4,7.2c-1,3.9-1.5,7.1-1.5,9.9c0,1.4,0.3,2.4,0.9,3.1c0.6,0.6,1.3,1,2.1,1c0.8,0,1.5-0.3,2-0.8
		c1.5-1.4,2.8-3.8,3.9-7.2c1.7-5.6,2.6-10.1,2.6-13.6c0-1.4-0.3-2.5-0.9-3.2C112.9,46.9,112.2,46.6,111.4,46.6"/>
	<path class="st0" d="M126.6,72.6h-13.1v-0.7c6.7-5.9,11.1-10.5,13.3-13.9c1-1.6,1.5-3.1,1.5-4.9c0-1.4-0.4-2.4-1.2-3.3
		c-0.9-0.9-1.9-1.3-3.2-1.3c-1.9,0-3.4,0.9-4.5,2.6l-0.7-0.3c0.6-1.7,1.6-3,2.9-3.9c1.3-0.9,2.6-1.4,4.1-1.4c1.7,0,3.1,0.6,4.2,1.7
		c1.1,1.1,1.7,2.6,1.7,4.2c0,1.1-0.2,2.2-0.6,3.2c-0.6,1.5-1.8,3.2-3.4,5.1c-2.6,2.9-5.9,6.2-10.2,10h6.6c1.1,0,1.9-0.2,2.6-0.6
		s1.2-1,1.5-1.8h0.8L126.6,72.6z"/>
	<path class="st0" d="M142.7,45.6l-6.3,21.9c-0.4,1.3-0.6,2.2-0.6,2.8c0,0.5,0.1,0.9,0.5,1.1c0.4,0.3,1.1,0.4,2.4,0.5l-0.2,0.7h-10
		l0.3-0.7c1.1,0,1.8-0.1,2.1-0.3c0.6-0.2,0.9-0.6,1.2-0.9c0.4-0.6,0.9-1.6,1.3-3.2l4.5-15.7c0.3-0.9,0.4-1.5,0.4-1.6
		c0.1-0.3,0.1-0.5,0.1-0.8c0-0.4-0.1-0.8-0.4-1.1c-0.2-0.3-0.6-0.4-1-0.4c-0.4,0-0.9,0.1-1.6,0.2l-0.3-0.7l6.6-1.9h0.9V45.6z"/>
</g>
<g>
	<polygon class="st0" points="37.5,41.2 45.4,36.8 53.2,41.2 68.9,50.3 61.1,54.9 	"/>
	<polygon class="st0" points="45.4,36.8 37.5,41.3 37.5,14.1 45.4,9.6 45.4,27.7 	"/>
	<polygon class="st0" points="45.4,9.6 37.5,14.1 29.7,9.6 37.5,5.1 	"/>
	<polygon class="st0" points="29.7,9.6 37.5,14.1 37.5,41.3 29.7,36.8 29.7,27.7 	"/>
	<polygon class="st0" points="29.7,36.8 37.5,41.3 14,54.9 6.2,50.3 21.9,41.3 	"/>
	<polygon class="st0" points="6.2,50.3 14,54.9 14,63.9 6.2,59.4 	"/>
	<polygon class="st0" points="14,63.9 14,54.9 37.5,41.2 37.5,50.3 29.7,54.9 	"/>
	<polygon class="st0" points="37.5,50.3 37.5,41.3 61.1,54.9 61.1,63.9 45.4,54.9 	"/>
	<polygon class="st0" points="61.1,18.6 68.9,23.2 45.4,36.8 45.4,27.7 	"/>
	<polygon class="st0" points="68.9,23.2 68.9,32.2 53.2,41.2 45.4,36.8 	"/>
	<polygon class="st0" points="37.5,77.5 29.7,73 29.7,54.9 37.5,50.3 	"/>
	<polygon class="st0" points="45.4,73 37.5,77.5 37.5,50.3 45.4,54.9 	"/>
	<polygon class="st0" points="68.9,59.4 61.1,63.9 61.1,54.9 68.9,50.3 	"/>
	<polygon class="st0" points="6.2,32.2 6.2,23.2 29.7,36.8 21.9,41.2 	"/>
	<polygon class="st0" points="6.2,23.2 14,18.6 29.7,27.7 29.7,36.8 	"/>
	<g>
		<rect x="36.9" y="38.8" transform="matrix(0.8658 -0.5003 0.5003 0.8658 -13.9675 25.977)" class="st1" width="9" height="0.4"/>
		<rect x="37.3" y="41.2" class="st1" width="0.4" height="9"/>
		<rect x="33.4" y="34.5" transform="matrix(0.5 -0.866 0.866 0.5 -16.986 48.5871)" class="st1" width="0.4" height="9"/>
		<rect x="5.7" y="50.3" class="st1" width="0.8" height="9"/>
		<rect x="9.9" y="48.1" transform="matrix(0.5 -0.866 0.866 0.5 -40.4932 35.0411)" class="st1" width="0.4" height="9"/>
		<rect x="13.8" y="54.9" class="st1" width="0.4" height="9"/>
		<rect x="9.7" y="57.1" transform="matrix(0.5 -0.866 0.866 0.5 -48.334 39.5456)" class="st1" width="0.8" height="9"/>
		<rect x="64.5" y="16.4" transform="matrix(0.5 -0.866 0.866 0.5 14.4068 66.6982)" class="st1" width="0.8" height="9"/>
		<rect x="68.5" y="23.2" class="st1" width="0.8" height="9"/>
		
			<rect x="44.2" y="22.7" transform="matrix(0.8661 -0.4999 0.4999 0.8661 -4.4487 29.7068)" class="st1" width="18.1" height="0.8"/>
		<rect x="52" y="36.3" transform="matrix(0.866 -0.5 0.5 0.866 -10.1885 35.449)" class="st1" width="18.1" height="0.8"/>
		<rect x="33.2" y="70.7" transform="matrix(0.5 -0.866 0.866 0.5 -48.3605 66.7069)" class="st1" width="0.8" height="9"/>
		<rect x="36.9" y="74.8" transform="matrix(0.8661 -0.4999 0.4999 0.8661 -32.0542 30.7879)" class="st1" width="9" height="0.8"/>
		<rect x="29.2" y="54.9" class="st1" width="0.8" height="18.1"/>
		<rect x="45" y="54.9" class="st1" width="0.8" height="18.1"/>
		<rect x="33.4" y="7.3" transform="matrix(0.5 -0.866 0.866 0.5 6.5447 35.0221)" class="st1" width="0.4" height="9"/>
		<rect x="36.9" y="11.6" transform="matrix(0.8658 -0.5003 0.5003 0.8658 -0.3629 22.3208)" class="st1" width="9" height="0.4"/>
		<rect x="41" y="2.8" transform="matrix(0.5 -0.866 0.866 0.5 14.381 39.5356)" class="st1" width="0.8" height="9"/>
		<rect x="29.1" y="6.9" transform="matrix(0.8661 -0.4999 0.4999 0.8661 0.8538 17.7718)" class="st1" width="9" height="0.8"/>
		<rect x="60.5" y="61.2" transform="matrix(0.866 -0.5 0.5 0.866 -22.1076 40.7543)" class="st1" width="9" height="0.8"/>
		<rect x="60.8" y="54.9" class="st1" width="0.4" height="9"/>
		<rect x="60.5" y="52.4" transform="matrix(0.8658 -0.5003 0.5003 0.8658 -17.594 39.5781)" class="st1" width="9" height="0.4"/>
		<rect x="68.5" y="50.3" class="st1" width="0.8" height="9"/>
		<rect x="5.7" y="23.2" class="st1" width="0.8" height="9"/>
		<rect x="5.6" y="20.5" transform="matrix(0.8661 -0.4998 0.4998 0.8661 -9.0949 7.8491)" class="st1" width="9" height="0.8"/>
		<rect x="13.6" y="27.7" transform="matrix(0.5 -0.866 0.866 0.5 -24.8348 30.4914)" class="st1" width="0.8" height="18.1"/>
		<rect x="21.4" y="14.1" transform="matrix(0.5 -0.866 0.866 0.5 -9.155 30.5012)" class="st1" width="0.8" height="18.1"/>
		<rect x="4.9" y="45.4" transform="matrix(0.866 -0.5 0.5 0.866 -21.0338 13.1412)" class="st1" width="18.1" height="0.8"/>
		<rect x="21.2" y="38.6" transform="matrix(0.866 -0.5 0.5 0.866 -16.0398 18.1019)" class="st1" width="9" height="0.8"/>
		<rect x="12.8" y="59" transform="matrix(0.866 -0.5 0.5 0.866 -26.7744 18.8768)" class="st1" width="18.1" height="0.8"/>
		<rect x="29.1" y="52.2" transform="matrix(0.866 -0.5 0.5 0.866 -21.7988 23.8557)" class="st1" width="9" height="0.8"/>
		
			<rect x="12.2" y="47.8" transform="matrix(0.8658 -0.5003 0.5003 0.8658 -20.5982 19.3318)" class="st1" width="27.1" height="0.4"/>
		<rect x="29.2" y="27.7" class="st1" width="0.8" height="9"/>
		<rect x="29.2" y="9.6" class="st1" width="0.8" height="18.1"/>
		<rect x="37.3" y="14.1" class="st1" width="0.4" height="27.2"/>
		<rect x="45" y="27.7" class="st1" width="0.8" height="9"/>
		<rect x="45" y="9.6" class="st1" width="0.8" height="18.1"/>
		<rect x="52.8" y="50.3" transform="matrix(0.5 -0.866 0.866 0.5 -24.8233 75.7912)" class="st1" width="0.8" height="18.1"/>
		<rect x="41" y="48.1" transform="matrix(0.5 -0.866 0.866 0.5 -24.8377 62.2121)" class="st1" width="0.8" height="9"/>
		<rect x="60.7" y="36.8" transform="matrix(0.5 -0.866 0.866 0.5 -9.1441 75.8015)" class="st1" width="0.8" height="18.1"/>
		<rect x="48.8" y="34.5" transform="matrix(0.5 -0.866 0.866 0.5 -9.1583 62.1725)" class="st1" width="0.8" height="9"/>
		<rect x="49.1" y="34.5" transform="matrix(0.5 -0.866 0.866 0.5 -16.9514 66.702)" class="st1" width="0.4" height="27.2"/>
		
			<rect x="43.6" y="29.7" transform="matrix(0.8658 -0.5003 0.5003 0.8658 -7.3185 32.6039)" class="st1" width="27.1" height="0.4"/>
		<rect x="37.3" y="50.3" class="st1" width="0.4" height="27.2"/>
		<rect x="17.7" y="16.4" transform="matrix(0.5 -0.866 0.866 0.5 -16.9698 30.4714)" class="st1" width="0.4" height="27.2"/>
	</g>
</g>
</svg>
